<?xml version="1.0" encoding="UTF-8"?>
<svg xmlns="http://www.w3.org/2000/svg" xmlns:xlink="http://www.w3.org/1999/xlink" width="300" height="250" viewBox="0 0 300 250">
<path fill-rule="nonzero" fill="rgb(0%, 70%, 0%)" fill-opacity="0.05" stroke-width="3" stroke-linecap="butt" stroke-linejoin="miter" stroke="rgb(0%, 70%, 0%)" stroke-opacity="0.2" stroke-miterlimit="10" d="M 50 150 L 147 150 L 147 247 L 50 247 Z M 50 150 " transform="matrix(3, 0, 0, 3, -300, -250)"/>
<path fill-rule="nonzero" fill="rgb(0%, 70%, 0%)" fill-opacity="0.25" stroke-width="3" stroke-linecap="butt" stroke-linejoin="miter" stroke="rgb(0%, 70%, 0%)" stroke-opacity="1" stroke-miterlimit="10" d="M 150 150 L 247 150 L 247 247 L 150 247 Z M 150 150 " transform="matrix(3, 0, 0, 3, -300, -250)"/>
<path fill-rule="nonzero" fill="rgb(100%, 50%, 50%)" fill-opacity="0.25" stroke-width="3" stroke-linecap="butt" stroke-linejoin="miter" stroke="rgb(100%, 50%, 50%)" stroke-opacity="1" stroke-miterlimit="10" d="M 60 150 L 140 150 L 160 145 L 160 50 L 60 50 Z M 60 150 " transform="matrix(3, 0, 0, 3, -300, -250)"/>
<path fill="none" stroke-width="3" stroke-linecap="butt" stroke-linejoin="miter" stroke="rgb(100%, 100%, 0%)" stroke-opacity="1" stroke-miterlimit="10" d="M -178.021149 110.111174 L -163.021205 110.111174 " transform="matrix(-0.727607, -2.910428, 2.910428, -0.727607, -300, -250)"/>
<path fill-rule="nonzero" fill="rgb(100%, 100%, 0%)" fill-opacity="1" d="M 131.808594 115.238281 L 124.53125 147.980469 L 153.636719 140.703125 Z M 131.808594 115.238281 "/>
<path fill="none" stroke-width="3" stroke-linecap="butt" stroke-linejoin="miter" stroke="rgb(80%, 80%, 20%)" stroke-opacity="0.1" stroke-miterlimit="10" d="M -150 110 L -135 110 " transform="matrix(0.000000000000000184, -3, 3, 0.000000000000000184, -300, -250)"/>
<path fill-rule="nonzero" fill="rgb(80%, 80%, 20%)" fill-opacity="0.1" d="M 30 125 L 15 155 L 45 155 Z M 30 125 "/>
</svg>
