<?xml version="1.0" encoding="UTF-8"?>
<svg xmlns="http://www.w3.org/2000/svg" xmlns:xlink="http://www.w3.org/1999/xlink" width="150" height="150" viewBox="0 0 150 150">
<path fill-rule="nonzero" fill="rgb(0%, 70%, 0%)" fill-opacity="0.05" stroke-width="3" stroke-linecap="butt" stroke-linejoin="miter" stroke="rgb(0%, 70%, 0%)" stroke-opacity="0.2" stroke-miterlimit="10" d="M -30 75 L 67 75 L 67 172 L -30 172 Z M -30 75 " transform="matrix(2, 0, 0, 2, -75, -75)"/>
<path fill-rule="nonzero" fill="rgb(0%, 70%, 0%)" fill-opacity="0.25" stroke-width="3" stroke-linecap="butt" stroke-linejoin="miter" stroke="rgb(0%, 70%, 0%)" stroke-opacity="1" stroke-miterlimit="10" d="M 70 75 L 167 75 L 167 172 L 70 172 Z M 70 75 " transform="matrix(2, 0, 0, 2, -75, -75)"/>
<path fill-rule="nonzero" fill="rgb(100%, 50%, 50%)" fill-opacity="0.25" stroke-width="3" stroke-linecap="butt" stroke-linejoin="miter" stroke="rgb(100%, 50%, 50%)" stroke-opacity="1" stroke-miterlimit="10" d="M 20 -40 L 77 -40 L 77 87 L 20 87 Z M 20 -40 " transform="matrix(2, 0, 0, 2, -75, -75)"/>
<path fill="none" stroke-width="3" stroke-linecap="butt" stroke-linejoin="miter" stroke="rgb(100%, 100%, 0%)" stroke-opacity="1" stroke-miterlimit="10" d="M -73 -81 L -58 -81 " transform="matrix(-2, 0.000000000000000245, -0.000000000000000245, -2, -75, -75)"/>
<path fill-rule="nonzero" fill="rgb(100%, 100%, 0%)" fill-opacity="1" d="M 21 87 L 41 97 L 41 77 Z M 21 87 "/>
<path fill="none" stroke-width="1.5" stroke-linecap="butt" stroke-linejoin="miter" stroke="rgb(100%, 100%, 0%)" stroke-opacity="1" stroke-miterlimit="10" d="M 73 75 L 73 87 " transform="matrix(2, 0, 0, 2, -75, -75)"/>
<path fill-rule="nonzero" fill="rgb(100%, 100%, 0%)" fill-opacity="1" d="M 74 75 C 74 79 68 79 68 75 C 68 71 74 71 74 75 L 74 99 C 74 103 68 103 68 99 C 68 95 74 95 74 99 "/>
<path fill="none" stroke-width="1.5" stroke-linecap="butt" stroke-linejoin="miter" stroke="rgb(0%, 0%, 0%)" stroke-opacity="1" stroke-miterlimit="10" d="M 4.023438 0 L 4.023438 -0.654297 C 3.695312 -0.140625 3.210938 0.117188 2.574219 0.117188 C 2.160156 0.117188 1.779297 0.00390625 1.433594 -0.224609 C 1.085938 -0.453125 0.818359 -0.771484 0.626953 -1.179688 C 0.4375 -1.587891 0.341797 -2.056641 0.341797 -2.587891 C 0.341797 -3.105469 0.427734 -3.574219 0.601562 -3.996094 C 0.773438 -4.417969 1.03125 -4.740234 1.376953 -4.964844 C 1.722656 -5.191406 2.107422 -5.302734 2.535156 -5.302734 C 2.847656 -5.302734 3.125 -5.236328 3.369141 -5.105469 C 3.613281 -4.972656 3.8125 -4.800781 3.964844 -4.589844 L 3.964844 -7.158203 L 4.839844 -7.158203 L 4.839844 0 L 4.023438 0 M 1.246094 -2.587891 C 1.244141 -1.923828 1.384766 -1.427734 1.664062 -1.097656 C 1.945312 -0.769531 2.275391 -0.605469 2.65625 -0.605469 C 3.041016 -0.605469 3.367188 -0.761719 3.634766 -1.076172 C 3.904297 -1.390625 4.039062 -1.871094 4.039062 -2.515625 C 4.039062 -3.224609 3.902344 -3.746094 3.628906 -4.078125 C 3.355469 -4.410156 3.017578 -4.574219 2.617188 -4.574219 C 2.226562 -4.574219 1.900391 -4.416016 1.638672 -4.097656 C 1.376953 -3.777344 1.244141 -3.275391 1.246094 -2.587891 Z M 6.226562 -6.148438 L 6.226562 -7.158203 L 7.105469 -7.158203 L 7.105469 -6.148438 L 6.226562 -6.148438 M 6.226562 0 L 6.226562 -5.185547 L 7.105469 -5.185547 L 7.105469 0 Z M 8.091797 -1.546875 L 8.958984 -1.683594 C 9.009766 -1.335938 9.144531 -1.070312 9.367188 -0.882812 C 9.589844 -0.699219 9.902344 -0.605469 10.302734 -0.605469 C 10.707031 -0.605469 11.005859 -0.6875 11.201172 -0.851562 C 11.396484 -1.015625 11.494141 -1.208984 11.494141 -1.429688 C 11.494141 -1.628906 11.408203 -1.785156 11.236328 -1.898438 C 11.115234 -1.976562 10.814453 -2.076172 10.337891 -2.197266 C 9.693359 -2.359375 9.246094 -2.5 8.996094 -2.619141 C 8.748047 -2.738281 8.558594 -2.902344 8.429688 -3.113281 C 8.300781 -3.322266 8.236328 -3.554688 8.236328 -3.808594 C 8.236328 -4.039062 8.291016 -4.253906 8.396484 -4.451172 C 8.501953 -4.648438 8.646484 -4.810547 8.828125 -4.941406 C 8.964844 -5.042969 9.150391 -5.126953 9.386719 -5.197266 C 9.623047 -5.267578 9.876953 -5.302734 10.146484 -5.302734 C 10.552734 -5.302734 10.910156 -5.244141 11.21875 -5.126953 C 11.525391 -5.009766 11.751953 -4.851562 11.900391 -4.650391 C 12.044922 -4.451172 12.146484 -4.183594 12.201172 -3.847656 L 11.341797 -3.730469 C 11.302734 -3.998047 11.191406 -4.205078 11.003906 -4.355469 C 10.816406 -4.505859 10.552734 -4.580078 10.208984 -4.580078 C 9.806641 -4.580078 9.517578 -4.513672 9.345703 -4.378906 C 9.173828 -4.246094 9.087891 -4.089844 9.087891 -3.910156 C 9.087891 -3.796875 9.123047 -3.695312 9.193359 -3.603516 C 9.265625 -3.509766 9.378906 -3.431641 9.53125 -3.369141 C 9.619141 -3.335938 9.876953 -3.261719 10.306641 -3.144531 C 10.929688 -2.978516 11.363281 -2.841797 11.609375 -2.736328 C 11.855469 -2.630859 12.046875 -2.476562 12.1875 -2.275391 C 12.328125 -2.074219 12.396484 -1.822266 12.396484 -1.523438 C 12.396484 -1.230469 12.3125 -0.955078 12.140625 -0.695312 C 11.970703 -0.4375 11.722656 -0.236328 11.400391 -0.0957031 C 11.080078 0.046875 10.714844 0.117188 10.306641 0.117188 C 9.634766 0.117188 9.121094 -0.0234375 8.767578 -0.302734 C 8.414062 -0.582031 8.189453 -0.998047 8.091797 -1.546875 Z M 16.826172 -0.640625 C 16.5 -0.363281 16.1875 -0.167969 15.886719 -0.0546875 C 15.585938 0.0605469 15.261719 0.117188 14.916016 0.117188 C 14.347656 0.117188 13.910156 -0.0214844 13.603516 -0.300781 C 13.296875 -0.578125 13.144531 -0.933594 13.144531 -1.367188 C 13.144531 -1.621094 13.203125 -1.853516 13.318359 -2.0625 C 13.433594 -2.273438 13.583984 -2.441406 13.771484 -2.568359 C 13.958984 -2.695312 14.169922 -2.791016 14.404297 -2.855469 C 14.576172 -2.902344 14.837891 -2.945312 15.185547 -2.988281 C 15.894531 -3.072266 16.417969 -3.173828 16.751953 -3.291016 C 16.755859 -3.412109 16.757812 -3.488281 16.757812 -3.519531 C 16.757812 -3.878906 16.673828 -4.130859 16.509766 -4.277344 C 16.283203 -4.476562 15.951172 -4.574219 15.507812 -4.574219 C 15.09375 -4.574219 14.789062 -4.501953 14.591797 -4.357422 C 14.394531 -4.212891 14.25 -3.957031 14.154297 -3.589844 L 13.294922 -3.707031 C 13.373047 -4.074219 13.501953 -4.371094 13.681641 -4.597656 C 13.861328 -4.824219 14.119141 -4.998047 14.458984 -5.119141 C 14.796875 -5.242188 15.189453 -5.302734 15.634766 -5.302734 C 16.078125 -5.302734 16.4375 -5.25 16.712891 -5.146484 C 16.990234 -5.042969 17.193359 -4.912109 17.324219 -4.753906 C 17.455078 -4.595703 17.544922 -4.396484 17.597656 -4.15625 C 17.626953 -4.005859 17.642578 -3.734375 17.642578 -3.34375 L 17.642578 -2.171875 C 17.642578 -1.355469 17.660156 -0.839844 17.697266 -0.623047 C 17.734375 -0.40625 17.808594 -0.199219 17.919922 0 L 17.001953 0 C 16.910156 -0.181641 16.851562 -0.394531 16.826172 -0.640625 M 16.751953 -2.601562 C 16.433594 -2.472656 15.955078 -2.361328 15.318359 -2.269531 C 14.955078 -2.21875 14.701172 -2.160156 14.550781 -2.09375 C 14.400391 -2.029297 14.285156 -1.933594 14.205078 -1.808594 C 14.123047 -1.683594 14.082031 -1.544922 14.082031 -1.390625 C 14.082031 -1.15625 14.169922 -0.960938 14.347656 -0.804688 C 14.525391 -0.648438 14.785156 -0.570312 15.126953 -0.570312 C 15.464844 -0.570312 15.767578 -0.644531 16.029297 -0.792969 C 16.294922 -0.941406 16.488281 -1.144531 16.611328 -1.402344 C 16.705078 -1.599609 16.751953 -1.892578 16.751953 -2.28125 Z M 19.8125 0 L 18.998047 0 L 18.998047 -7.158203 L 19.876953 -7.158203 L 19.876953 -4.605469 C 20.248047 -5.070312 20.722656 -5.302734 21.296875 -5.302734 C 21.617188 -5.302734 21.917969 -5.238281 22.203125 -5.109375 C 22.488281 -4.980469 22.722656 -4.800781 22.90625 -4.568359 C 23.089844 -4.335938 23.234375 -4.054688 23.339844 -3.726562 C 23.443359 -3.396484 23.496094 -3.044922 23.496094 -2.671875 C 23.496094 -1.78125 23.275391 -1.095703 22.835938 -0.609375 C 22.396484 -0.125 21.869141 0.117188 21.253906 0.117188 C 20.642578 0.117188 20.162109 -0.138672 19.8125 -0.648438 L 19.8125 0 M 19.804688 -2.632812 C 19.804688 -2.009766 19.888672 -1.560547 20.058594 -1.285156 C 20.333984 -0.832031 20.708984 -0.605469 21.179688 -0.605469 C 21.564453 -0.605469 21.896484 -0.771484 22.175781 -1.105469 C 22.457031 -1.439453 22.597656 -1.9375 22.597656 -2.597656 C 22.597656 -3.275391 22.462891 -3.773438 22.193359 -4.097656 C 21.925781 -4.417969 21.601562 -4.580078 21.21875 -4.580078 C 20.835938 -4.580078 20.503906 -4.414062 20.222656 -4.080078 C 19.943359 -3.746094 19.804688 -3.263672 19.804688 -2.632812 Z M 24.546875 0 L 24.546875 -7.158203 L 25.425781 -7.158203 L 25.425781 0 Z M 30.337891 -1.669922 L 31.246094 -1.558594 C 31.103516 -1.027344 30.837891 -0.615234 30.449219 -0.322266 C 30.0625 -0.0292969 29.568359 0.117188 28.964844 0.117188 C 28.207031 0.117188 27.605469 -0.117188 27.162109 -0.583984 C 26.716797 -1.050781 26.496094 -1.705078 26.496094 -2.548828 C 26.496094 -3.421875 26.71875 -4.097656 27.167969 -4.580078 C 27.617188 -5.0625 28.201172 -5.302734 28.917969 -5.302734 C 29.609375 -5.302734 30.175781 -5.066406 30.617188 -4.59375 C 31.054688 -4.123047 31.275391 -3.458984 31.275391 -2.601562 C 31.275391 -2.550781 31.273438 -2.472656 31.269531 -2.367188 L 27.402344 -2.367188 C 27.435547 -1.798828 27.597656 -1.363281 27.886719 -1.058594 C 28.175781 -0.757812 28.537109 -0.605469 28.970703 -0.605469 C 29.292969 -0.605469 29.568359 -0.689453 29.796875 -0.859375 C 30.023438 -1.029297 30.205078 -1.298828 30.337891 -1.669922 M 27.453125 -3.089844 L 30.347656 -3.089844 C 30.308594 -3.527344 30.197266 -3.853516 30.015625 -4.072266 C 29.736328 -4.410156 29.373047 -4.580078 28.925781 -4.580078 C 28.523438 -4.580078 28.183594 -4.445312 27.908203 -4.175781 C 27.632812 -3.904297 27.480469 -3.542969 27.453125 -3.089844 Z M 31.689453 0 " transform="matrix(2, 0, 0, 2, 3, 19)"/>
<path fill-rule="nonzero" fill="rgb(100%, 0%, 0%)" fill-opacity="1" d="M 11.046875 19 L 11.046875 17.691406 C 10.390625 18.71875 9.421875 19.234375 8.148438 19.234375 C 7.320312 19.234375 6.558594 19.007812 5.867188 18.550781 C 5.171875 18.09375 4.636719 17.457031 4.253906 16.640625 C 3.875 15.824219 3.683594 14.886719 3.683594 13.824219 C 3.683594 12.789062 3.855469 11.851562 4.203125 11.007812 C 4.546875 10.164062 5.0625 9.519531 5.753906 9.070312 C 6.445312 8.617188 7.214844 8.394531 8.070312 8.394531 C 8.695312 8.394531 9.25 8.527344 9.738281 8.789062 C 10.226562 9.054688 10.625 9.398438 10.929688 9.820312 L 10.929688 4.683594 L 12.679688 4.683594 L 12.679688 19 L 11.046875 19 M 5.492188 13.824219 C 5.488281 15.152344 5.769531 16.144531 6.328125 16.804688 C 6.890625 17.460938 7.550781 17.789062 8.3125 17.789062 C 9.082031 17.789062 9.734375 17.476562 10.269531 16.847656 C 10.808594 16.21875 11.078125 15.257812 11.078125 13.96875 C 11.078125 12.550781 10.804688 11.507812 10.257812 10.84375 C 9.710938 10.179688 9.035156 9.851562 8.234375 9.851562 C 7.453125 9.851562 6.800781 10.167969 6.277344 10.804688 C 5.753906 11.445312 5.488281 12.449219 5.492188 13.824219 Z M 15.453125 6.703125 L 15.453125 4.683594 L 17.210938 4.683594 L 17.210938 6.703125 L 15.453125 6.703125 M 15.453125 19 L 15.453125 8.628906 L 17.210938 8.628906 L 17.210938 19 Z M 19.183594 15.90625 L 20.917969 15.632812 C 21.019531 16.328125 21.289062 16.859375 21.734375 17.234375 C 22.179688 17.601562 22.804688 17.789062 23.605469 17.789062 C 24.414062 17.789062 25.011719 17.625 25.402344 17.296875 C 25.792969 16.96875 25.988281 16.582031 25.988281 16.140625 C 25.988281 15.742188 25.816406 15.429688 25.472656 15.203125 C 25.230469 15.046875 24.628906 14.847656 23.675781 14.605469 C 22.386719 14.28125 21.492188 14 20.992188 13.761719 C 20.496094 13.523438 20.117188 13.195312 19.859375 12.773438 C 19.601562 12.355469 19.472656 11.890625 19.472656 11.382812 C 19.472656 10.921875 19.582031 10.492188 19.792969 10.097656 C 20.003906 9.703125 20.292969 9.378906 20.65625 9.117188 C 20.929688 8.914062 21.300781 8.746094 21.773438 8.605469 C 22.246094 8.464844 22.753906 8.394531 23.292969 8.394531 C 24.105469 8.394531 24.820312 8.511719 25.4375 8.746094 C 26.050781 8.980469 26.503906 9.296875 26.800781 9.699219 C 27.089844 10.097656 27.292969 10.632812 27.402344 11.304688 L 25.683594 11.539062 C 25.605469 11.003906 25.382812 10.589844 25.007812 10.289062 C 24.632812 9.988281 24.105469 9.839844 23.417969 9.839844 C 22.613281 9.839844 22.035156 9.972656 21.691406 10.242188 C 21.347656 10.507812 21.175781 10.820312 21.175781 11.179688 C 21.175781 11.40625 21.246094 11.609375 21.386719 11.792969 C 21.53125 11.980469 21.757812 12.136719 22.0625 12.261719 C 22.238281 12.328125 22.753906 12.476562 23.613281 12.710938 C 24.859375 13.042969 25.726562 13.316406 26.21875 13.527344 C 26.710938 13.738281 27.09375 14.046875 27.375 14.449219 C 27.65625 14.851562 27.792969 15.355469 27.792969 15.953125 C 27.792969 16.539062 27.625 17.089844 27.28125 17.609375 C 26.941406 18.125 26.445312 18.527344 25.800781 18.808594 C 25.160156 19.09375 24.429688 19.234375 23.613281 19.234375 C 22.269531 19.234375 21.242188 18.953125 20.535156 18.394531 C 19.828125 17.835938 19.378906 17.003906 19.183594 15.90625 Z M 36.652344 17.71875 C 36 18.273438 35.375 18.664062 34.773438 18.890625 C 34.171875 19.121094 33.523438 19.234375 32.832031 19.234375 C 31.695312 19.234375 30.820312 18.957031 30.207031 18.398438 C 29.59375 17.84375 29.289062 17.132812 29.289062 16.265625 C 29.289062 15.757812 29.40625 15.292969 29.636719 14.875 C 29.867188 14.453125 30.167969 14.117188 30.542969 13.863281 C 30.917969 13.609375 31.339844 13.417969 31.808594 13.289062 C 32.152344 13.195312 32.675781 13.109375 33.371094 13.023438 C 34.789062 12.855469 35.835938 12.652344 36.503906 12.417969 C 36.511719 12.175781 36.515625 12.023438 36.515625 11.960938 C 36.515625 11.242188 36.347656 10.738281 36.019531 10.445312 C 35.566406 10.046875 34.902344 9.851562 34.015625 9.851562 C 33.1875 9.851562 32.578125 9.996094 32.183594 10.285156 C 31.789062 10.574219 31.5 11.085938 31.308594 11.820312 L 29.589844 11.585938 C 29.746094 10.851562 30.003906 10.257812 30.363281 9.804688 C 30.722656 9.351562 31.238281 9.003906 31.917969 8.761719 C 32.59375 8.515625 33.378906 8.394531 34.269531 8.394531 C 35.15625 8.394531 35.875 8.5 36.425781 8.707031 C 36.980469 8.914062 37.386719 9.175781 37.648438 9.492188 C 37.910156 9.808594 38.089844 10.207031 38.195312 10.6875 C 38.253906 10.988281 38.285156 11.53125 38.285156 12.3125 L 38.285156 14.65625 C 38.285156 16.289062 38.320312 17.320312 38.394531 17.753906 C 38.46875 18.1875 38.617188 18.601562 38.839844 19 L 37.003906 19 C 36.820312 18.636719 36.703125 18.210938 36.652344 17.71875 M 36.503906 13.796875 C 35.867188 14.054688 34.910156 14.277344 33.636719 14.460938 C 32.910156 14.5625 32.402344 14.679688 32.101562 14.8125 C 31.800781 14.941406 31.570312 15.132812 31.410156 15.382812 C 31.246094 15.632812 31.164062 15.910156 31.164062 16.21875 C 31.164062 16.6875 31.339844 17.078125 31.695312 17.390625 C 32.050781 17.703125 32.570312 17.859375 33.253906 17.859375 C 33.929688 17.859375 34.535156 17.710938 35.058594 17.414062 C 35.589844 17.117188 35.976562 16.710938 36.222656 16.195312 C 36.410156 15.800781 36.503906 15.214844 36.503906 14.4375 Z M 42.625 19 L 40.996094 19 L 40.996094 4.683594 L 42.753906 4.683594 L 42.753906 9.789062 C 43.496094 8.859375 44.445312 8.394531 45.59375 8.394531 C 46.234375 8.394531 46.835938 8.523438 47.40625 8.78125 C 47.976562 9.039062 48.445312 9.398438 48.8125 9.863281 C 49.179688 10.328125 49.46875 10.890625 49.679688 11.546875 C 49.886719 12.207031 49.992188 12.910156 49.992188 13.65625 C 49.992188 15.4375 49.550781 16.808594 48.671875 17.78125 C 47.792969 18.75 46.738281 19.234375 45.507812 19.234375 C 44.285156 19.234375 43.324219 18.722656 42.625 17.703125 L 42.625 19 M 42.609375 13.734375 C 42.609375 14.980469 42.777344 15.878906 43.117188 16.429688 C 43.667969 17.335938 44.417969 17.789062 45.359375 17.789062 C 46.128906 17.789062 46.792969 17.457031 47.351562 16.789062 C 47.914062 16.121094 48.195312 15.125 48.195312 13.804688 C 48.195312 12.449219 47.925781 11.453125 47.386719 10.804688 C 46.851562 10.164062 46.203125 9.839844 45.4375 9.839844 C 44.671875 9.839844 44.007812 10.171875 43.445312 10.839844 C 42.886719 11.507812 42.609375 12.472656 42.609375 13.734375 Z M 52.09375 19 L 52.09375 4.683594 L 53.851562 4.683594 L 53.851562 19 Z M 63.675781 15.660156 L 65.492188 15.882812 C 65.207031 16.945312 64.675781 17.769531 63.898438 18.355469 C 63.125 18.941406 62.136719 19.234375 60.929688 19.234375 C 59.414062 19.234375 58.210938 18.765625 57.324219 17.832031 C 56.433594 16.898438 55.992188 15.589844 55.992188 13.902344 C 55.992188 12.15625 56.4375 10.804688 57.335938 9.839844 C 58.234375 8.875 59.402344 8.394531 60.835938 8.394531 C 62.21875 8.394531 63.351562 8.867188 64.234375 9.8125 C 65.109375 10.753906 65.550781 12.082031 65.550781 13.796875 C 65.550781 13.898438 65.546875 14.054688 65.539062 14.265625 L 57.804688 14.265625 C 57.871094 15.402344 58.195312 16.273438 58.773438 16.882812 C 59.351562 17.484375 60.074219 17.789062 60.941406 17.789062 C 61.585938 17.789062 62.136719 17.621094 62.59375 17.28125 C 63.046875 16.941406 63.410156 16.402344 63.675781 15.660156 M 57.90625 12.820312 L 63.695312 12.820312 C 63.617188 11.945312 63.394531 11.292969 63.03125 10.855469 C 62.472656 10.179688 61.746094 9.839844 60.851562 9.839844 C 60.046875 9.839844 59.367188 10.109375 58.816406 10.648438 C 58.265625 11.191406 57.960938 11.914062 57.90625 12.820312 Z M 66.378906 19 "/>
</svg>
