<?xml version="1.0" encoding="UTF-8"?>
<svg xmlns="http://www.w3.org/2000/svg" xmlns:xlink="http://www.w3.org/1999/xlink" width="150" height="150" viewBox="0 0 150 150">
<path fill-rule="nonzero" fill="rgb(0%, 70%, 0%)" fill-opacity="0.05" stroke-width="3" stroke-linecap="butt" stroke-linejoin="miter" stroke="rgb(0%, 70%, 0%)" stroke-opacity="0.2" stroke-miterlimit="10" d="M -35 75 L 62 75 L 62 172 L -35 172 Z M -35 75 " transform="matrix(2, 0, 0, 2, -75, -75)"/>
<path fill-rule="nonzero" fill="rgb(0%, 70%, 0%)" fill-opacity="0.25" stroke-width="3" stroke-linecap="butt" stroke-linejoin="miter" stroke="rgb(0%, 70%, 0%)" stroke-opacity="1" stroke-miterlimit="10" d="M 65 75 L 162 75 L 162 172 L 65 172 Z M 65 75 " transform="matrix(2, 0, 0, 2, -75, -75)"/>
<path fill-rule="nonzero" fill="rgb(100%, 50%, 50%)" fill-opacity="0.25" stroke-width="3" stroke-linecap="butt" stroke-linejoin="miter" stroke="rgb(100%, 50%, 50%)" stroke-opacity="1" stroke-miterlimit="10" d="M 35 -45 L 92 -45 L 92 82 L 35 82 Z M 35 -45 " transform="matrix(2, 0, 0, 2, -75, -75)"/>
<path fill="none" stroke-width="3" stroke-linecap="butt" stroke-linejoin="miter" stroke="rgb(100%, 100%, 0%)" stroke-opacity="1" stroke-miterlimit="10" d="M -78 78 L -63 78 " transform="matrix(0.000000000000000122, -2, 2, 0.000000000000000122, -75, -75)"/>
<path fill-rule="nonzero" fill="rgb(100%, 100%, 0%)" fill-opacity="1" d="M 81 31 L 71 51 L 91 51 Z M 81 31 "/>
<path fill="none" stroke-width="1.5" stroke-linecap="butt" stroke-linejoin="miter" stroke="rgb(100%, 100%, 0%)" stroke-opacity="1" stroke-miterlimit="10" d="M 63.5 78 L 93 78 " transform="matrix(2, 0, 0, 2, -75, -75)"/>
<path fill-rule="nonzero" fill="rgb(100%, 100%, 0%)" fill-opacity="1" d="M 58 81 C 58 85 52 85 52 81 C 52 77 58 77 58 81 L 112 81 C 112 85 106 85 106 81 C 106 77 112 77 112 81 "/>
<path fill="none" stroke-width="1.5" stroke-linecap="butt" stroke-linejoin="miter" stroke="rgb(0%, 0%, 0%)" stroke-opacity="1" stroke-miterlimit="10" d="M 0.664062 0 L 0.664062 -7.158203 L 1.542969 -7.158203 L 1.542969 -3.076172 L 3.623047 -5.185547 L 4.761719 -5.185547 L 2.777344 -3.261719 L 4.960938 0 L 3.876953 0 L 2.164062 -2.652344 L 1.542969 -2.054688 L 1.542969 0 Z M 9.208984 -1.669922 L 10.117188 -1.558594 C 9.974609 -1.027344 9.708984 -0.615234 9.320312 -0.322266 C 8.933594 -0.0292969 8.439453 0.117188 7.835938 0.117188 C 7.078125 0.117188 6.476562 -0.117188 6.033203 -0.583984 C 5.587891 -1.050781 5.367188 -1.705078 5.367188 -2.548828 C 5.367188 -3.421875 5.589844 -4.097656 6.039062 -4.580078 C 6.488281 -5.0625 7.072266 -5.302734 7.789062 -5.302734 C 8.480469 -5.302734 9.046875 -5.066406 9.488281 -4.59375 C 9.925781 -4.123047 10.146484 -3.458984 10.146484 -2.601562 C 10.146484 -2.550781 10.144531 -2.472656 10.140625 -2.367188 L 6.273438 -2.367188 C 6.306641 -1.798828 6.46875 -1.363281 6.757812 -1.058594 C 7.046875 -0.757812 7.408203 -0.605469 7.841797 -0.605469 C 8.164062 -0.605469 8.439453 -0.689453 8.667969 -0.859375 C 8.894531 -1.029297 9.076172 -1.298828 9.208984 -1.669922 M 6.324219 -3.089844 L 9.21875 -3.089844 C 9.179688 -3.527344 9.068359 -3.853516 8.886719 -4.072266 C 8.607422 -4.410156 8.244141 -4.580078 7.796875 -4.580078 C 7.394531 -4.580078 7.054688 -4.445312 6.779297 -4.175781 C 6.503906 -3.904297 6.351562 -3.542969 6.324219 -3.089844 Z M 14.771484 -1.669922 L 15.679688 -1.558594 C 15.537109 -1.027344 15.271484 -0.615234 14.882812 -0.322266 C 14.496094 -0.0292969 14.001953 0.117188 13.398438 0.117188 C 12.640625 0.117188 12.039062 -0.117188 11.595703 -0.583984 C 11.150391 -1.050781 10.929688 -1.705078 10.929688 -2.548828 C 10.929688 -3.421875 11.152344 -4.097656 11.601562 -4.580078 C 12.050781 -5.0625 12.634766 -5.302734 13.351562 -5.302734 C 14.042969 -5.302734 14.609375 -5.066406 15.050781 -4.59375 C 15.488281 -4.123047 15.708984 -3.458984 15.708984 -2.601562 C 15.708984 -2.550781 15.707031 -2.472656 15.703125 -2.367188 L 11.835938 -2.367188 C 11.869141 -1.798828 12.03125 -1.363281 12.320312 -1.058594 C 12.609375 -0.757812 12.970703 -0.605469 13.404297 -0.605469 C 13.726562 -0.605469 14.001953 -0.689453 14.230469 -0.859375 C 14.457031 -1.029297 14.638672 -1.298828 14.771484 -1.669922 M 11.886719 -3.089844 L 14.78125 -3.089844 C 14.742188 -3.527344 14.630859 -3.853516 14.449219 -4.072266 C 14.169922 -4.410156 13.806641 -4.580078 13.359375 -4.580078 C 12.957031 -4.580078 12.617188 -4.445312 12.341797 -4.175781 C 12.066406 -3.904297 11.914062 -3.542969 11.886719 -3.089844 Z M 16.783203 1.988281 L 16.783203 -5.185547 L 17.583984 -5.185547 L 17.583984 -4.511719 C 17.771484 -4.775391 17.984375 -4.972656 18.222656 -5.105469 C 18.460938 -5.236328 18.748047 -5.302734 19.087891 -5.302734 C 19.529297 -5.302734 19.919922 -5.189453 20.259766 -4.960938 C 20.597656 -4.732422 20.853516 -4.412109 21.025391 -3.996094 C 21.197266 -3.582031 21.283203 -3.126953 21.283203 -2.632812 C 21.283203 -2.101562 21.189453 -1.623047 20.998047 -1.199219 C 20.808594 -0.773438 20.53125 -0.449219 20.167969 -0.222656 C 19.804688 0.00390625 19.423828 0.117188 19.023438 0.117188 C 18.730469 0.117188 18.466797 0.0546875 18.234375 -0.0683594 C 18.001953 -0.191406 17.810547 -0.347656 17.662109 -0.537109 L 17.662109 1.988281 L 16.783203 1.988281 M 17.578125 -2.5625 C 17.578125 -1.896484 17.712891 -1.402344 17.982422 -1.083984 C 18.253906 -0.765625 18.580078 -0.605469 18.964844 -0.605469 C 19.355469 -0.605469 19.689453 -0.771484 19.96875 -1.101562 C 20.246094 -1.431641 20.384766 -1.943359 20.384766 -2.636719 C 20.384766 -3.296875 20.25 -3.792969 19.978516 -4.121094 C 19.707031 -4.449219 19.380859 -4.613281 19.003906 -4.613281 C 18.628906 -4.613281 18.298828 -4.439453 18.009766 -4.089844 C 17.722656 -3.740234 17.578125 -3.230469 17.578125 -2.5625 Z M 21.683594 0 " transform="matrix(2, 0, 0, 2, 3, 19)"/>
<path fill-rule="nonzero" fill="rgb(0%, 100%, 0%)" fill-opacity="1" d="M 4.328125 19 L 4.328125 4.683594 L 6.085938 4.683594 L 6.085938 12.847656 L 10.246094 8.628906 L 12.523438 8.628906 L 8.554688 12.476562 L 12.921875 19 L 10.753906 19 L 7.328125 13.695312 L 6.085938 14.890625 L 6.085938 19 Z M 21.417969 15.660156 L 23.234375 15.882812 C 22.949219 16.945312 22.417969 17.769531 21.640625 18.355469 C 20.867188 18.941406 19.878906 19.234375 18.671875 19.234375 C 17.15625 19.234375 15.953125 18.765625 15.066406 17.832031 C 14.175781 16.898438 13.734375 15.589844 13.734375 13.902344 C 13.734375 12.15625 14.179688 10.804688 15.078125 9.839844 C 15.976562 8.875 17.144531 8.394531 18.578125 8.394531 C 19.960938 8.394531 21.09375 8.867188 21.976562 9.8125 C 22.851562 10.753906 23.292969 12.082031 23.292969 13.796875 C 23.292969 13.898438 23.289062 14.054688 23.28125 14.265625 L 15.546875 14.265625 C 15.613281 15.402344 15.9375 16.273438 16.515625 16.882812 C 17.09375 17.484375 17.816406 17.789062 18.683594 17.789062 C 19.328125 17.789062 19.878906 17.621094 20.335938 17.28125 C 20.789062 16.941406 21.152344 16.402344 21.417969 15.660156 M 15.648438 12.820312 L 21.4375 12.820312 C 21.359375 11.945312 21.136719 11.292969 20.773438 10.855469 C 20.214844 10.179688 19.488281 9.839844 18.59375 9.839844 C 17.789062 9.839844 17.109375 10.109375 16.558594 10.648438 C 16.007812 11.191406 15.703125 11.914062 15.648438 12.820312 Z M 32.542969 15.660156 L 34.359375 15.882812 C 34.074219 16.945312 33.542969 17.769531 32.765625 18.355469 C 31.992188 18.941406 31.003906 19.234375 29.796875 19.234375 C 28.28125 19.234375 27.078125 18.765625 26.191406 17.832031 C 25.300781 16.898438 24.859375 15.589844 24.859375 13.902344 C 24.859375 12.15625 25.304688 10.804688 26.203125 9.839844 C 27.101562 8.875 28.269531 8.394531 29.703125 8.394531 C 31.085938 8.394531 32.21875 8.867188 33.101562 9.8125 C 33.976562 10.753906 34.417969 12.082031 34.417969 13.796875 C 34.417969 13.898438 34.414062 14.054688 34.40625 14.265625 L 26.671875 14.265625 C 26.738281 15.402344 27.0625 16.273438 27.640625 16.882812 C 28.21875 17.484375 28.941406 17.789062 29.808594 17.789062 C 30.453125 17.789062 31.003906 17.621094 31.460938 17.28125 C 31.914062 16.941406 32.277344 16.402344 32.542969 15.660156 M 26.773438 12.820312 L 32.5625 12.820312 C 32.484375 11.945312 32.261719 11.292969 31.898438 10.855469 C 31.339844 10.179688 30.613281 9.839844 29.71875 9.839844 C 28.914062 9.839844 28.234375 10.109375 27.683594 10.648438 C 27.132812 11.191406 26.828125 11.914062 26.773438 12.820312 Z M 36.566406 22.976562 L 36.566406 8.628906 L 38.167969 8.628906 L 38.167969 9.976562 C 38.542969 9.449219 38.96875 9.054688 39.445312 8.789062 C 39.921875 8.527344 40.496094 8.394531 41.175781 8.394531 C 42.058594 8.394531 42.839844 8.621094 43.519531 9.078125 C 44.195312 9.535156 44.707031 10.175781 45.050781 11.007812 C 45.394531 11.835938 45.566406 12.746094 45.566406 13.734375 C 45.566406 14.796875 45.378906 15.753906 44.996094 16.601562 C 44.617188 17.453125 44.0625 18.101562 43.335938 18.554688 C 42.609375 19.007812 41.847656 19.234375 41.046875 19.234375 C 40.460938 19.234375 39.933594 19.109375 39.46875 18.863281 C 39.003906 18.617188 38.621094 18.304688 38.324219 17.925781 L 38.324219 22.976562 L 36.566406 22.976562 M 38.15625 13.875 C 38.15625 15.207031 38.425781 16.195312 38.964844 16.832031 C 39.507812 17.46875 40.160156 17.789062 40.929688 17.789062 C 41.710938 17.789062 42.378906 17.457031 42.9375 16.796875 C 43.492188 16.136719 43.769531 15.113281 43.769531 13.726562 C 43.769531 12.40625 43.5 11.414062 42.957031 10.757812 C 42.414062 10.101562 41.761719 9.773438 41.007812 9.773438 C 40.257812 9.773438 39.597656 10.121094 39.019531 10.820312 C 38.445312 11.519531 38.15625 12.539062 38.15625 13.875 Z M 46.367188 19 "/>
</svg>
