<?xml version="1.0" encoding="UTF-8"?>
<svg xmlns="http://www.w3.org/2000/svg" xmlns:xlink="http://www.w3.org/1999/xlink" width="300" height="250" viewBox="0 0 300 250">
<path fill-rule="nonzero" fill="rgb(0%, 70%, 0%)" fill-opacity="0.25" stroke-width="3" stroke-linecap="butt" stroke-linejoin="miter" stroke="rgb(0%, 70%, 0%)" stroke-opacity="1" stroke-miterlimit="10" d="M 50 150 L 147 150 L 147 247 L 50 247 Z M 50 150 "/>
<path fill-rule="nonzero" fill="rgb(0%, 70%, 0%)" fill-opacity="0.25" stroke-width="3" stroke-linecap="butt" stroke-linejoin="miter" stroke="rgb(0%, 70%, 0%)" stroke-opacity="1" stroke-miterlimit="10" d="M 150 150 L 247 150 L 247 247 L 150 247 Z M 150 150 "/>
<path fill-rule="nonzero" fill="rgb(100%, 50%, 50%)" fill-opacity="0.25" stroke-width="3" stroke-linecap="butt" stroke-linejoin="miter" stroke="rgb(100%, 50%, 50%)" stroke-opacity="1" stroke-miterlimit="10" d="M 90 20 L 147 20 L 147 147 L 90 147 Z M 90 20 "/>
<path fill="none" stroke-width="3" stroke-linecap="butt" stroke-linejoin="miter" stroke="rgb(100%, 0%, 0%)" stroke-opacity="1" stroke-miterlimit="10" d="M 150 75 L 170 95 "/>
<path fill="none" stroke-width="3" stroke-linecap="butt" stroke-linejoin="miter" stroke="rgb(100%, 0%, 0%)" stroke-opacity="1" stroke-miterlimit="10" d="M 150 95 L 170 75 "/>
<path fill-rule="nonzero" fill="rgb(100%, 100%, 100%)" fill-opacity="1" d="M 159.21875 22.949219 C 159.207031 22.480469 159.199219 22.128906 159.199219 21.894531 C 159.199219 20.515625 159.394531 19.324219 159.785156 18.320312 C 160.070312 17.566406 160.535156 16.804688 161.171875 16.035156 C 161.640625 15.476562 162.484375 14.65625 163.703125 13.585938 C 164.917969 12.507812 165.710938 11.652344 166.074219 11.015625 C 166.4375 10.378906 166.621094 9.679688 166.621094 8.925781 C 166.621094 7.558594 166.085938 6.359375 165.019531 5.320312 C 163.953125 4.289062 162.644531 3.769531 161.09375 3.769531 C 159.597656 3.769531 158.347656 4.238281 157.34375 5.175781 C 156.339844 6.113281 155.683594 7.578125 155.371094 9.570312 L 151.757812 9.140625 C 152.082031 6.472656 153.050781 4.425781 154.65625 3.007812 C 156.265625 1.589844 158.390625 0.878906 161.035156 0.878906 C 163.835938 0.878906 166.066406 1.640625 167.734375 3.164062 C 169.402344 4.6875 170.234375 6.53125 170.234375 8.691406 C 170.234375 9.941406 169.941406 11.09375 169.355469 12.148438 C 168.769531 13.203125 167.625 14.484375 165.917969 15.996094 C 164.773438 17.011719 164.023438 17.761719 163.671875 18.242188 C 163.320312 18.722656 163.058594 19.277344 162.890625 19.902344 C 162.722656 20.527344 162.625 21.542969 162.597656 22.949219 L 159.21875 22.949219 M 159.003906 30 L 159.003906 25.996094 L 163.007812 25.996094 L 163.007812 30 Z M 172.246094 30 "/>
</svg>
