<?xml version="1.0" encoding="UTF-8"?>
<svg xmlns="http://www.w3.org/2000/svg" xmlns:xlink="http://www.w3.org/1999/xlink" width="250" height="250" viewBox="0 0 250 250">
<path fill-rule="nonzero" fill="rgb(0%, 70%, 0%)" fill-opacity="0.25" stroke-width="3" stroke-linecap="butt" stroke-linejoin="miter" stroke="rgb(0%, 70%, 0%)" stroke-opacity="1" stroke-miterlimit="10" d="M 75 125 L 172 125 L 172 222 L 75 222 Z M 75 125 " transform="matrix(3, 0, 0, 3, -250, -250)"/>
<path fill-rule="nonzero" fill="rgb(100%, 50%, 50%)" fill-opacity="0.025" stroke-width="3" stroke-linecap="butt" stroke-linejoin="miter" stroke="rgb(100%, 50%, 50%)" stroke-opacity="0.1" stroke-miterlimit="10" d="M 95 5 L 152 5 L 152 132 L 95 132 Z M 95 5 " transform="matrix(3, 0, 0, 3, -250, -250)"/>
<path fill-rule="nonzero" fill="rgb(100%, 50%, 50%)" fill-opacity="0.25" stroke-width="3" stroke-linecap="butt" stroke-linejoin="miter" stroke="rgb(100%, 50%, 50%)" stroke-opacity="1" stroke-miterlimit="10" d="M 95 -4 L 152 -4 L 152 123 L 95 123 Z M 95 -4 " transform="matrix(3, 0, 0, 3, -250, -250)"/>
<path fill="none" stroke-width="3" stroke-linecap="butt" stroke-linejoin="miter" stroke="rgb(100%, 100%, 0%)" stroke-opacity="1" stroke-miterlimit="10" d="M -125 125 L -105 125 " transform="matrix(0.000000000000000184, -3, 3, 0.000000000000000184, -250, -250)"/>
<path fill-rule="nonzero" fill="rgb(100%, 100%, 0%)" fill-opacity="1" d="M 125 35 L 110 65 L 140 65 Z M 125 35 "/>
</svg>
