<?xml version="1.0" encoding="UTF-8"?>
<svg xmlns="http://www.w3.org/2000/svg" xmlns:xlink="http://www.w3.org/1999/xlink" width="300" height="300" viewBox="0 0 300 300">
<path fill-rule="nonzero" fill="rgb(0%, 70%, 0%)" fill-opacity="0.05" stroke-width="3" stroke-linecap="butt" stroke-linejoin="miter" stroke="rgb(0%, 70%, 0%)" stroke-opacity="0.2" stroke-miterlimit="10" d="M 50 150 L 147 150 L 147 247 L 50 247 Z M 50 150 " transform="matrix(2, 0, 0, 2, -150, -150)"/>
<path fill-rule="nonzero" fill="rgb(0%, 70%, 0%)" fill-opacity="0.25" stroke-width="3" stroke-linecap="butt" stroke-linejoin="miter" stroke="rgb(0%, 70%, 0%)" stroke-opacity="1" stroke-miterlimit="10" d="M 150 150 L 247 150 L 247 247 L 150 247 Z M 150 150 " transform="matrix(2, 0, 0, 2, -150, -150)"/>
<path fill-rule="nonzero" fill="rgb(100%, 50%, 50%)" fill-opacity="0.25" stroke-width="3" stroke-linecap="butt" stroke-linejoin="miter" stroke="rgb(100%, 50%, 50%)" stroke-opacity="1" stroke-miterlimit="10" d="M 100 45 L 157 45 L 157 172 L 100 172 Z M 100 45 " transform="matrix(2, 0, 0, 2, -150, -150)"/>
<path fill="none" stroke-width="3" stroke-linecap="butt" stroke-linejoin="miter" stroke="rgb(100%, 0%, 0%)" stroke-opacity="1" stroke-miterlimit="10" d="M 130 85 L 170 85 " transform="matrix(2, 0, 0, 2, -150, -150)"/>
<path fill-rule="nonzero" fill="rgb(100%, 0%, 0%)" fill-opacity="1" d="M 210 20 L 190 10 L 190 30 Z M 210 20 "/>
<path fill="none" stroke-width="3" stroke-linecap="butt" stroke-linejoin="miter" stroke="rgb(100%, 100%, 0%)" stroke-opacity="1" stroke-miterlimit="10" d="M -153 -160 L -138 -160 " transform="matrix(-2, -0.000000000000000245, 0.000000000000000245, -2, -150, -150)"/>
<path fill-rule="nonzero" fill="rgb(100%, 100%, 0%)" fill-opacity="1" d="M 106 170 L 126 180 L 126 160 Z M 106 170 "/>
<path fill="none" stroke-width="3" stroke-linecap="butt" stroke-linejoin="miter" stroke="rgb(80%, 80%, 20%)" stroke-opacity="0.15" stroke-miterlimit="10" d="M -162 125 L -147 125 " transform="matrix(0.000000000000000122, -2, 2, 0.000000000000000122, -150, -150)"/>
<path fill-rule="nonzero" fill="rgb(80%, 80%, 20%)" fill-opacity="0.15" d="M 100 124 L 90 144 L 110 144 Z M 100 124 "/>
<path fill="none" stroke-width="1.5" stroke-linecap="butt" stroke-linejoin="miter" stroke="rgb(100%, 0%, 0%)" stroke-opacity="1" stroke-miterlimit="10" d="M 140 155 L 150 165 " transform="matrix(2, 0, 0, 2, -150, -150)"/>
<path fill="none" stroke-width="1.5" stroke-linecap="butt" stroke-linejoin="miter" stroke="rgb(100%, 0%, 0%)" stroke-opacity="1" stroke-miterlimit="10" d="M 140 165 L 150 155 " transform="matrix(2, 0, 0, 2, -150, -150)"/>
</svg>
